<?xml version="1.0" ?>
<!-- Uploaded to: SVG Repo, www.svgrepo.com, Generator: SVG Repo Mixer Tools -->
<svg fill="#000000" width="800px" height="800px" viewBox="0 0 100 100" version="1.1" xml:space="preserve" xmlns="http://www.w3.org/2000/svg" xmlns:xlink="http://www.w3.org/1999/xlink">
<g id="news_updates"/>
<g id="newspaper"/>
<g id="fake_news">
<g>
<path d="M41,61h-3c-0.4-5.8-4.2-11-9.7-13c1.7-1.5,2.7-3.6,2.7-6c0-4.4-3.6-8-8-8s-8,3.6-8,8c0,2.4,1,4.5,2.7,6    C12.3,50,8.4,55.2,8,61H5c-0.6,0-1,0.4-1,1v4c0,0.6,0.4,1,1,1h1v13c0,0.6,0.4,1,1,1h32c0.6,0,1-0.4,1-1V67h1c0.6,0,1-0.4,1-1v-4    C42,61.4,41.6,61,41,61z M17,42c0-3.3,2.7-6,6-6s6,2.7,6,6s-2.7,6-6,6S17,45.3,17,42z M19.9,49.4c1,0.4,2,0.6,3.1,0.6    s2.1-0.2,3.1-0.6c5.4,1.3,9.4,6.1,9.9,11.6H10C10.5,55.5,14.5,50.7,19.9,49.4z M38,79H8V67h30V79z M40,65h-1H7H6v-2h34V65z"/>
<path d="M70,51c7.7,0,14-6.3,14-14s-6.3-14-14-14s-14,6.3-14,14S62.3,51,70,51z M70,25c6.6,0,12,5.4,12,12s-5.4,12-12,12    s-12-5.4-12-12S63.4,25,70,25z"/>
<path d="M95,19l-50-0.1c0,0,0,0,0,0c-0.3,0-0.5,0.1-0.7,0.3c-0.2,0.2-0.3,0.4-0.3,0.7l0,25.9l-4.9,12.8c-0.1,0.4-0.1,0.8,0.2,1.1    c0.2,0.2,0.4,0.3,0.7,0.3c0.1,0,0.2,0,0.4-0.1L53.2,55L95,55c0.6,0,1-0.4,1-1V20C96,19.4,95.6,19,95,19z M94,53l-41,0    c-0.1,0-0.2,0-0.4,0.1l-10.9,4.2l4.2-10.9c0-0.1,0.1-0.2,0.1-0.4l0-25L94,21V53z"/>
<path d="M63.3,43.7c0.2,0.2,0.5,0.3,0.7,0.3s0.5-0.1,0.7-0.3l5.3-5.3l5.3,5.3c0.2,0.2,0.5,0.3,0.7,0.3s0.5-0.1,0.7-0.3    c0.4-0.4,0.4-1,0-1.4L71.4,37l5.3-5.3c0.4-0.4,0.4-1,0-1.4s-1-0.4-1.4,0L70,35.6l-5.3-5.3c-0.4-0.4-1-0.4-1.4,0s-0.4,1,0,1.4    l5.3,5.3l-5.3,5.3C62.9,42.7,62.9,43.3,63.3,43.7z"/>
</g>
</g>
<g id="secret_document"/>
<g id="interview"/>
<g id="reporter"/>
<g id="id_card"/>
<g id="camera"/>
<g id="television"/>
<g id="crime_scane"/>
<g id="note"/>
<g id="recorder"/>
<g id="station_television"/>
<g id="file_storage"/>
<g id="news_anchor"/>
<g id="trending_news"/>
<g id="world_news"/>
<g id="document"/>
<g id="radio"/>
<g id="video_recorder"/>
</svg>